<svg width="148" height="148" viewBox="0 0 148 148" fill="none" xmlns="http://www.w3.org/2000/svg">
<path d="M43.1667 49.3333V37C43.1667 28.8225 46.4152 20.9799 52.1975 15.1975C57.9799 9.41517 65.8225 6.16667 74 6.16667C82.1775 6.16667 90.0201 9.41517 95.8025 15.1975C101.585 20.9799 104.833 28.8225 104.833 37V49.3333H123.333C124.969 49.3333 126.537 49.983 127.694 51.1395C128.85 52.296 129.5 53.8645 129.5 55.5V129.5C129.5 131.135 128.85 132.704 127.694 133.86C126.537 135.017 124.969 135.667 123.333 135.667H24.6667C23.0312 135.667 21.4626 135.017 20.3062 133.86C19.1497 132.704 18.5 131.135 18.5 129.5V55.5C18.5 53.8645 19.1497 52.296 20.3062 51.1395C21.4626 49.983 23.0312 49.3333 24.6667 49.3333H43.1667ZM43.1667 61.6667H30.8333V123.333H117.167V61.6667H104.833V74H92.5V61.6667H55.5V74H43.1667V61.6667ZM55.5 49.3333H92.5V37C92.5 32.0935 90.5509 27.388 87.0815 23.9185C83.6121 20.4491 78.9065 18.5 74 18.5C69.0935 18.5 64.3879 20.4491 60.9185 23.9185C57.4491 27.388 55.5 32.0935 55.5 37V49.3333Z" fill="#272727"/>
</svg>
