<svg width="62" height="62" viewBox="0 0 62 62" fill="none" xmlns="http://www.w3.org/2000/svg">
<path d="M31.0024 11.6999C37.0707 6.25161 46.4482 6.43245 52.2943 12.2889C58.1378 18.1479 58.3393 27.4789 52.9039 33.5652L30.9973 55.5029L9.09577 33.5652C3.66044 27.4789 3.86452 18.1324 9.70544 12.2889C15.5567 6.4402 24.9161 6.24386 31.0024 11.6999V11.6999ZM48.6363 15.9391C44.7613 12.0589 38.5096 11.9014 34.4538 15.5439L31.005 18.6387L27.5537 15.5464C23.4849 11.8988 17.2462 12.0589 13.3609 15.9443C9.51169 19.7934 9.31794 25.9547 12.8649 30.026L30.9999 48.1895L49.1349 30.0286C52.6844 25.9547 52.4906 19.8012 48.6363 15.9391V15.9391Z" fill="#272727"/>
</svg>
