<svg width="60" height="49" viewBox="0 0 60 49" fill="none" xmlns="http://www.w3.org/2000/svg">
<path d="M7.5 6.125H52.5C53.163 6.125 53.7989 6.3401 54.2678 6.72299C54.7366 7.10588 55 7.62518 55 8.16667V40.8333C55 41.3748 54.7366 41.8941 54.2678 42.277C53.7989 42.6599 53.163 42.875 52.5 42.875H7.5C6.83696 42.875 6.20107 42.6599 5.73223 42.277C5.26339 41.8941 5 41.3748 5 40.8333V8.16667C5 7.62518 5.26339 7.10588 5.73223 6.72299C6.20107 6.3401 6.83696 6.125 7.5 6.125ZM50 14.7776L30.18 29.2734L10 14.7327V38.7917H50V14.7776ZM11.2775 10.2083L30.1525 23.8099L48.755 10.2083H11.2775Z" fill="white"/>
</svg>
