<svg width="91" height="91" viewBox="0 0 91 91" fill="none" xmlns="http://www.w3.org/2000/svg">
<path d="M15.1666 83.4165C15.1666 75.3716 18.3625 67.6562 24.0511 61.9676C29.7397 56.279 37.4551 53.0832 45.5 53.0832C53.5449 53.0832 61.2603 56.279 66.9489 61.9676C72.6375 67.6562 75.8333 75.3716 75.8333 83.4165H68.25C68.25 77.3828 65.8531 71.5963 61.5866 67.3298C57.3202 63.0634 51.5336 60.6665 45.5 60.6665C39.4663 60.6665 33.6797 63.0634 29.4133 67.3298C25.1468 71.5963 22.75 77.3828 22.75 83.4165H15.1666ZM45.5 49.2915C32.9306 49.2915 22.75 39.1109 22.75 26.5415C22.75 13.9721 32.9306 3.7915 45.5 3.7915C58.0693 3.7915 68.25 13.9721 68.25 26.5415C68.25 39.1109 58.0693 49.2915 45.5 49.2915ZM45.5 41.7082C53.8795 41.7082 60.6666 34.9211 60.6666 26.5415C60.6666 18.1619 53.8795 11.3748 45.5 11.3748C37.1204 11.3748 30.3333 18.1619 30.3333 26.5415C30.3333 34.9211 37.1204 41.7082 45.5 41.7082Z" fill="#808080"/>
</svg>
