<svg width="62" height="62" viewBox="0 0 62 62" fill="none" xmlns="http://www.w3.org/2000/svg">
<path d="M31.0026 11.6999C37.0708 6.25161 46.4483 6.43245 52.2944 12.2889C58.1379 18.1479 58.3394 27.4789 52.9041 33.5652L30.9974 55.5029L9.09589 33.5652C3.66056 27.4789 3.86464 18.1324 9.70556 12.2889C15.5568 6.4402 24.9162 6.24386 31.0026 11.6999ZM48.6364 15.9391C44.7614 12.0589 38.5097 11.9014 34.4539 15.5439L31.0051 18.6387L27.5538 15.5464C23.4851 11.8988 17.2463 12.0589 13.361 15.9443C9.51181 19.7935 9.31806 25.9547 12.865 30.026L31 48.1895L49.135 30.0286C52.6845 25.9547 52.4907 19.8012 48.6364 15.9391Z" fill="white"/>
</svg>
