<svg width="64" height="64" viewBox="0 0 64 64" fill="none" xmlns="http://www.w3.org/2000/svg">
<path d="M32 2.66675C33.751 2.66675 35.4848 3.01162 37.1024 3.68169C38.7201 4.35175 40.19 5.33388 41.4281 6.57199C42.6662 7.81011 43.6483 9.27996 44.3184 10.8976C44.9885 12.5153 45.3333 14.2491 45.3333 16.0001V21.3334H53.3333C54.0406 21.3334 54.7189 21.6144 55.219 22.1145C55.7191 22.6146 56 23.2928 56 24.0001V56.0001C56 56.7073 55.7191 57.3856 55.219 57.8857C54.7189 58.3858 54.0406 58.6667 53.3333 58.6667H10.6667C9.95942 58.6667 9.28115 58.3858 8.78105 57.8857C8.28095 57.3856 8 56.7073 8 56.0001V24.0001C8 23.2928 8.28095 22.6146 8.78105 22.1145C9.28115 21.6144 9.95942 21.3334 10.6667 21.3334H18.6667V16.0001C18.6667 12.4639 20.0714 9.07248 22.5719 6.57199C25.0724 4.07151 28.4638 2.66675 32 2.66675ZM45.3333 29.3334H40V32.0001C40.0008 32.6798 40.261 33.3335 40.7276 33.8277C41.1942 34.322 41.8319 34.6194 42.5104 34.6592C43.1889 34.699 43.857 34.4783 44.3782 34.042C44.8994 33.6058 45.2344 32.987 45.3147 32.3121L45.3333 32.0001V29.3334ZM24 29.3334H18.6667V32.0001C18.6674 32.6798 18.9277 33.3335 19.3943 33.8277C19.8608 34.322 20.4985 34.6194 21.1771 34.6592C21.8556 34.699 22.5237 34.4783 23.0449 34.042C23.5661 33.6058 23.9011 32.987 23.9813 32.3121L24 32.0001V29.3334ZM32 8.00008C29.9594 7.99997 27.996 8.77962 26.5113 10.1795C25.0266 11.5794 24.133 13.4937 24.0133 15.5307L24 16.0001V21.3334H40V16.0001C40.0001 13.9595 39.2205 11.996 37.8206 10.5114C36.4207 9.02673 34.5064 8.13313 32.4693 8.01342L32 8.00008Z" fill="white"/>
</svg>
