<svg width="62" height="62" viewBox="0 0 62 62" fill="none" xmlns="http://www.w3.org/2000/svg">
<path d="M10.3333 56.8335C10.3333 51.3524 12.5107 46.0957 16.3864 42.22C20.2622 38.3442 25.5188 36.1668 31 36.1668C36.4811 36.1668 41.7378 38.3442 45.6135 42.22C49.4893 46.0957 51.6666 51.3524 51.6666 56.8335H46.5C46.5 52.7226 44.8669 48.7802 41.9601 45.8733C39.0533 42.9665 35.1108 41.3335 31 41.3335C26.8891 41.3335 22.9466 42.9665 20.0398 45.8733C17.133 48.7802 15.5 52.7226 15.5 56.8335H10.3333ZM31 33.5835C22.4362 33.5835 15.5 26.6472 15.5 18.0835C15.5 9.51975 22.4362 2.5835 31 2.5835C39.5637 2.5835 46.5 9.51975 46.5 18.0835C46.5 26.6472 39.5637 33.5835 31 33.5835ZM31 28.4168C36.7091 28.4168 41.3333 23.7927 41.3333 18.0835C41.3333 12.3743 36.7091 7.75016 31 7.75016C25.2908 7.75016 20.6666 12.3743 20.6666 18.0835C20.6666 23.7927 25.2908 28.4168 31 28.4168Z" fill="white"/>
</svg>
