<svg width="345" height="137" viewBox="0 0 345 137" fill="none" xmlns="http://www.w3.org/2000/svg">
<path d="M129 83V107C129 110.147 128.174 113.239 126.605 115.968C125.037 118.697 122.78 120.966 120.061 122.55C117.342 124.135 114.254 124.978 111.107 124.997C107.96 125.016 104.863 124.209 102.125 122.657C99.3867 121.105 97.1033 118.863 95.5025 116.153C93.9016 113.443 93.0392 110.361 93.0013 107.214C92.9634 104.067 93.7513 100.965 95.2864 98.2178C96.8215 95.4703 99.0501 93.1733 101.75 91.556L115 83.906V89.446L129 83ZM125 89.244L111 95.692V90.832L104.194 94.762C102.094 95.9297 100.329 97.6186 99.071 99.6661C97.8127 101.714 97.1029 104.051 97.01 106.452L97 107C96.9982 110.673 98.4397 114.199 101.014 116.819C103.588 119.438 107.088 120.942 110.76 121.005C114.432 121.068 117.982 119.685 120.644 117.155C123.306 114.625 124.868 111.151 124.992 107.48L125 107V89.244ZM111 97C113.652 97 116.196 98.0536 118.071 99.9289C119.946 101.804 121 104.348 121 107C121 109.652 119.946 112.196 118.071 114.071C116.196 115.946 113.652 117 111 117C108.348 117 105.804 115.946 103.929 114.071C102.054 112.196 101 109.652 101 107C101 104.348 102.054 101.804 103.929 99.9289C105.804 98.0536 108.348 97 111 97ZM111 101C109.409 101 107.883 101.632 106.757 102.757C105.632 103.883 105 105.409 105 107C105 108.591 105.632 110.117 106.757 111.243C107.883 112.368 109.409 113 111 113C112.591 113 114.117 112.368 115.243 111.243C116.368 110.117 117 108.591 117 107C117 105.409 116.368 103.883 115.243 102.757C114.117 101.632 112.591 101 111 101Z" fill="white"/>
<path d="M86.2835 10.288C80.6942 10.288 76.1288 12.2933 72.5875 16.304C69.0462 20.3147 67.2755 25.2427 67.2755 31.088C67.2755 36.8907 69.2808 41.8187 73.2915 45.872C77.3022 49.9253 82.1875 51.952 87.9475 51.952C92.8968 51.952 97.0142 51.2693 100.3 49.904V31.088H103.372V51.312C99.6595 53.616 94.4542 54.768 87.7555 54.768C81.0995 54.768 75.4675 52.4853 70.8595 47.92C66.2515 43.312 63.9475 37.7013 63.9475 31.088C63.9475 24.432 66.0382 18.8427 70.2195 14.32C74.4008 9.75466 79.7555 7.472 86.2835 7.472C91.4035 7.472 96.5875 8.32533 101.836 10.032L101.004 12.592C95.8835 11.056 90.9768 10.288 86.2835 10.288ZM120.541 39.6L114.589 54H111.581L128.989 12.208H130.717L148.253 54H144.989L138.973 39.6H120.541ZM129.693 16.944C129.053 18.864 128.477 20.464 127.965 21.744L121.565 37.104H137.949L131.613 21.808C130.631 19.4187 129.991 17.7973 129.693 16.944ZM156.68 54V12.464H159.624V51.312H178.696V54H156.68ZM189.478 39.6L183.526 54H180.518L197.926 12.208H199.654L217.19 54H213.926L207.91 39.6H189.478ZM198.63 16.944C197.99 18.864 197.414 20.464 196.902 21.744L190.502 37.104H206.886L200.55 21.808C199.569 19.4187 198.929 17.7973 198.63 16.944ZM220.562 12.464H224.146L235.218 30.448L246.802 12.464H250.002L236.69 32.816L250.066 54H246.546L234.642 34.928L222.226 54H218.962L233.17 32.496L220.562 12.464ZM270.391 54H267.51V39.152L251.831 12.464H255.351L267.447 33.072C268.385 34.9493 268.919 35.952 269.047 36.08C269.303 35.5253 269.836 34.544 270.647 33.136L282.743 12.464H286.071L270.391 39.28V54ZM40.4863 124.768C33.8303 124.768 28.1129 122.507 23.3343 117.984C18.5556 113.419 16.1663 107.808 16.1663 101.152C16.1663 94.4533 18.2569 88.8427 22.4383 84.32C26.6196 79.7547 31.9743 77.472 38.5023 77.472C43.6223 77.472 48.8063 78.3253 54.0543 80.032L53.2223 82.592C48.1023 81.056 43.1956 80.288 38.5023 80.288C32.9129 80.288 28.3476 82.2933 24.8063 86.304C21.2649 90.3147 19.4943 95.2213 19.4943 101.024C19.4943 106.827 21.5423 111.776 25.6383 115.872C29.7769 119.925 34.7263 121.952 40.4863 121.952C45.5209 121.952 49.8729 121.184 53.5423 119.648L54.5023 121.824C52.8809 122.763 50.7476 123.488 48.1023 124C45.4996 124.512 42.9609 124.768 40.4863 124.768ZM65.7738 124V82.464H68.7178V121.312H87.7898V124H65.7738ZM150.073 85.088H135.993V82.464H167.033V85.088H152.953V124H150.073V85.088ZM207.519 124V103.008H178.655V124H175.711V82.464H178.655V100.384H207.519V82.464H210.463V124H207.519ZM225.836 124V82.464H228.78V124H225.836ZM244.149 124V82.208H245.557L272.821 113.568C273.802 114.677 274.698 115.787 275.509 116.896C276.362 117.963 276.81 118.517 276.853 118.56C276.767 117.536 276.725 115.531 276.725 112.544V82.464H279.669V124.256H278.261L250.485 92.384L246.965 88.096C247.05 88.9493 247.093 90.9547 247.093 94.112V124H244.149ZM312.368 84.448C307.632 84.448 303.642 86.2613 300.4 89.888C297.2 93.472 295.6 97.888 295.6 103.136C295.6 108.384 297.413 112.843 301.04 116.512C304.666 120.139 308.933 121.952 313.84 121.952C318.789 121.952 322.629 121.376 325.36 120.224V103.136H328.304V121.568C324.976 123.616 320.261 124.64 314.16 124.64C308.058 124.64 302.917 122.571 298.736 118.432C294.554 114.293 292.464 109.216 292.464 103.2C292.464 97.1413 294.341 92.064 298.096 87.968C301.893 83.872 306.778 81.824 312.752 81.824C317.573 81.824 322.288 82.5707 326.896 84.064L326.128 86.496C321.69 85.1307 317.104 84.448 312.368 84.448Z" fill="white"/>
</svg>
