<svg width="62" height="62" viewBox="0 0 62 62" fill="none" xmlns="http://www.w3.org/2000/svg">
<path d="M18.0833 20.6668V15.5002C18.0833 12.0744 19.4442 8.78904 21.8665 6.3667C24.2889 3.94436 27.5743 2.5835 31 2.5835C34.4257 2.5835 37.7111 3.94436 40.1335 6.3667C42.5558 8.78904 43.9167 12.0744 43.9167 15.5002V20.6668H51.6667C52.3518 20.6668 53.0089 20.939 53.4934 21.4235C53.9778 21.9079 54.25 22.565 54.25 23.2502V54.2502C54.25 54.9353 53.9778 55.5924 53.4934 56.0769C53.0089 56.5613 52.3518 56.8335 51.6667 56.8335H10.3333C9.64819 56.8335 8.99111 56.5613 8.50664 56.0769C8.02217 55.5924 7.75 54.9353 7.75 54.2502V23.2502C7.75 22.565 8.02217 21.9079 8.50664 21.4235C8.99111 20.939 9.64819 20.6668 10.3333 20.6668H18.0833ZM18.0833 25.8335H12.9167V51.6668H49.0833V25.8335H43.9167V31.0002H38.75V25.8335H23.25V31.0002H18.0833V25.8335ZM23.25 20.6668H38.75V15.5002C38.75 13.4447 37.9335 11.4735 36.4801 10.0201C35.0267 8.56668 33.0554 7.75016 31 7.75016C28.9446 7.75016 26.9733 8.56668 25.5199 10.0201C24.0665 11.4735 23.25 13.4447 23.25 15.5002V20.6668Z" fill="white"/>
</svg>
